<?xml version="1.0" encoding="UTF-8" standalone="no"?>
<!-- Created with Inkscape (http://www.inkscape.org/) -->

<svg
   width="23.118999mm"
   height="23.118999mm"
   viewBox="0 0 23.118999 23.119"
   version="1.1"
   id="svg8"
   inkscape:version="1.2.1 (9c6d41e, 2022-07-14)"
   sodipodi:docname="DiD_logo.svg"
   inkscape:export-filename="export_png/DiD_logo.png"
   inkscape:export-xdpi="549.33002"
   inkscape:export-ydpi="549.33002"
   xmlns:inkscape="http://www.inkscape.org/namespaces/inkscape"
   xmlns:sodipodi="http://sodipodi.sourceforge.net/DTD/sodipodi-0.dtd"
   xmlns="http://www.w3.org/2000/svg"
   xmlns:svg="http://www.w3.org/2000/svg"
   xmlns:rdf="http://www.w3.org/1999/02/22-rdf-syntax-ns#"
   xmlns:cc="http://creativecommons.org/ns#"
   xmlns:dc="http://purl.org/dc/elements/1.1/">
  <defs
     id="defs2" />
  <sodipodi:namedview
     id="base"
     pagecolor="#ffffff"
     bordercolor="#666666"
     borderopacity="1.0"
     inkscape:pageopacity="0.0"
     inkscape:pageshadow="2"
     inkscape:zoom="4.7752328"
     inkscape:cx="84.81262"
     inkscape:cy="47.851071"
     inkscape:document-units="mm"
     inkscape:current-layer="layer1"
     showgrid="false"
     inkscape:window-width="1800"
     inkscape:window-height="1069"
     inkscape:window-x="0"
     inkscape:window-y="44"
     inkscape:window-maximized="0"
     fit-margin-top="0"
     fit-margin-left="0"
     fit-margin-right="0"
     fit-margin-bottom="0"
     inkscape:pagecheckerboard="false"
     inkscape:showpageshadow="0"
     inkscape:deskcolor="#d1d1d1" />
  <metadata
     id="metadata5">
    <rdf:RDF>
      <cc:Work
         rdf:about="">
        <dc:format>image/svg+xml</dc:format>
        <dc:type
           rdf:resource="http://purl.org/dc/dcmitype/StillImage" />
        <dc:title />
      </cc:Work>
    </rdf:RDF>
  </metadata>
  <g
     inkscape:label="1"
     inkscape:groupmode="layer"
     id="layer1"
     style="display:inline;opacity:1"
     transform="translate(-59.839396,-122.06852)">
    <circle
       id="path59"
       cx="71.398895"
       cy="133.62802"
       style="fill:#c8306f;fill-opacity:1;stroke-width:0.199883"
       r="11.5595"
       inkscape:export-xdpi="549.33002"
       inkscape:export-ydpi="549.33002" />
    <path
       style="color:#000000;font-style:normal;font-variant:normal;font-weight:normal;font-stretch:normal;font-size:medium;line-height:normal;font-family:sans-serif;font-variant-ligatures:normal;font-variant-position:normal;font-variant-caps:normal;font-variant-numeric:normal;font-variant-alternates:normal;font-feature-settings:normal;text-indent:0;text-align:start;text-decoration:none;text-decoration-line:none;text-decoration-style:solid;text-decoration-color:#000000;letter-spacing:normal;word-spacing:normal;text-transform:none;writing-mode:lr-tb;direction:ltr;text-orientation:mixed;dominant-baseline:auto;baseline-shift:baseline;text-anchor:start;white-space:normal;shape-padding:0;clip-rule:nonzero;display:inline;overflow:visible;visibility:visible;opacity:1;isolation:auto;mix-blend-mode:normal;color-interpolation:sRGB;color-interpolation-filters:linearRGB;solid-color:#000000;solid-opacity:1;fill:#000000;fill-opacity:0.348066;fill-rule:nonzero;stroke:none;stroke-width:1;stroke-linecap:butt;stroke-linejoin:miter;stroke-miterlimit:4;stroke-dasharray:none;stroke-dashoffset:0;stroke-opacity:1;color-rendering:auto;image-rendering:auto;shape-rendering:auto;text-rendering:auto;enable-background:accumulate"
       d="m 292.85352,491.04688 -9.03907,1.69726 -0.77148,25.07813 -24.72656,0.0644 -1.96289,9.6582 20.27539,20.63281 a 43.689098,44.194174 0 0 0 36.4082,-37.29687 z"
       id="rect4880"
       inkscape:connector-curvature="0"
       transform="scale(0.26458333)"
       inkscape:export-xdpi="549.33002"
       inkscape:export-ydpi="549.33002" />
    <g
       transform="matrix(0.26458333,0,0,0.26458333,64.519557,126.61521)"
       id="g4724"
       style="fill:#ffffff"
       inkscape:export-xdpi="549.33002"
       inkscape:export-ydpi="549.33002">
      <rect
         id="rect4684"
         y="17.5"
         x="3"
         width="7"
         height="2"
         style="fill:#ffffff" />
      <rect
         id="rect4686"
         y="22.5"
         x="3"
         width="7"
         height="2"
         style="fill:#ffffff" />
      <rect
         id="rect4688"
         y="27.5"
         x="3"
         width="7"
         height="2"
         style="fill:#ffffff" />
      <rect
         id="rect4690"
         y="32.5"
         x="3"
         width="7"
         height="2"
         style="fill:#ffffff" />
      <rect
         id="rect4692"
         y="37.5"
         x="3"
         width="7"
         height="2"
         style="fill:#ffffff" />
      <g
         id="g4712"
         style="fill:#ffffff">
        <g
           id="g1229">
          <g
             id="g4698"
             style="fill:#ffffff">
            <path
               id="path4694"
               style="fill:#ffffff"
               d="M 313.29888 513.84031 L 313.29888 520.83835 L 310.80278 520.83835 L 310.80278 552.83835 L 342.80278 552.83835 L 342.80278 550.34031 L 349.79888 550.34031 L 349.79888 548.34031 L 342.80278 548.34031 L 342.80278 545.34031 L 349.79888 545.34031 L 349.79888 543.34031 L 342.80278 543.34031 L 342.80278 540.34031 L 349.79888 540.34031 L 349.79888 538.34031 L 342.80278 538.34031 L 342.80278 535.34031 L 349.79888 535.34031 L 349.79888 533.34031 L 342.80278 533.34031 L 342.80278 530.34031 L 349.79888 530.34031 L 349.79888 528.34031 L 342.80278 528.34031 L 342.80278 525.34031 L 349.79888 525.34031 L 349.79888 523.34031 L 342.80278 523.34031 L 342.80278 520.83835 L 340.29888 520.83835 L 340.29888 513.84031 L 338.29888 513.84031 L 338.29888 520.83835 L 335.29888 520.83835 L 335.29888 513.84031 L 333.29888 513.84031 L 333.29888 520.83835 L 330.29888 520.83835 L 330.29888 513.84031 L 328.29888 513.84031 L 328.29888 520.83835 L 325.29888 520.83835 L 325.29888 513.84031 L 323.29888 513.84031 L 323.29888 520.83835 L 320.29888 520.83835 L 320.29888 513.84031 L 318.29888 513.84031 L 318.29888 520.83835 L 315.29888 520.83835 L 315.29888 513.84031 L 313.29888 513.84031 z M 316.4102 525.78562 C 316.78944 525.78562 317.07953 525.93987 317.27739 526.24656 C 317.47525 526.54994 317.57231 526.9866 317.57231 527.5571 C 317.57231 528.1276 317.47525 528.56683 317.27739 528.87351 C 317.07953 529.18019 316.78944 529.33249 316.4102 529.33249 C 316.03097 529.33249 315.74283 529.18019 315.54497 528.87351 C 315.34711 528.56683 315.24809 528.1276 315.24809 527.5571 C 315.24809 526.9866 315.34711 526.54994 315.54497 526.24656 C 315.74283 525.93987 316.03097 525.78562 316.4102 525.78562 z M 322.34575 525.78562 C 322.72498 525.78562 323.01508 525.93987 323.21294 526.24656 C 323.4108 526.54994 323.50981 526.9866 323.50981 527.5571 C 323.50981 528.1276 323.4108 528.56683 323.21294 528.87351 C 323.01508 529.18019 322.72498 529.33249 322.34575 529.33249 C 321.96652 529.33249 321.67838 529.18019 321.48052 528.87351 C 321.28266 528.56683 321.18364 528.1276 321.18364 527.5571 C 321.18364 526.9866 321.28266 526.54994 321.48052 526.24656 C 321.67838 525.93987 321.96652 525.78562 322.34575 525.78562 z M 325.3145 525.78562 C 325.69373 525.78562 325.98187 525.93987 326.17974 526.24656 C 326.3776 526.54994 326.47661 526.9866 326.47661 527.5571 C 326.47661 528.1276 326.3776 528.56683 326.17974 528.87351 C 325.98187 529.18019 325.69373 529.33249 325.3145 529.33249 C 324.93527 529.33249 324.64713 529.18019 324.44927 528.87351 C 324.25141 528.56683 324.15239 528.1276 324.15239 527.5571 C 324.15239 526.9866 324.25141 526.54994 324.44927 526.24656 C 324.64713 525.93987 324.93527 525.78562 325.3145 525.78562 z M 331.25005 525.78562 C 331.62928 525.78562 331.91742 525.93987 332.11528 526.24656 C 332.31314 526.54994 332.41216 526.9866 332.41216 527.5571 C 332.41216 528.1276 332.31314 528.56683 332.11528 528.87351 C 331.91742 529.18019 331.62928 529.33249 331.25005 529.33249 C 330.87081 529.33249 330.58267 529.18019 330.38481 528.87351 C 330.18695 528.56683 330.08794 528.1276 330.08794 527.5571 C 330.08794 526.9866 330.18695 526.54994 330.38481 526.24656 C 330.58267 525.93987 330.87081 525.78562 331.25005 525.78562 z M 334.2188 525.78562 C 334.59803 525.78562 334.88617 525.93987 335.08403 526.24656 C 335.28189 526.54994 335.38091 526.9866 335.38091 527.5571 C 335.38091 528.1276 335.28189 528.56683 335.08403 528.87351 C 334.88617 529.18019 334.59803 529.33249 334.2188 529.33249 C 333.83956 529.33249 333.55142 529.18019 333.35356 528.87351 C 333.1557 528.56683 333.05669 528.1276 333.05669 527.5571 C 333.05669 526.9866 333.1557 526.54994 333.35356 526.24656 C 333.55142 525.93987 333.83956 525.78562 334.2188 525.78562 z M 337.18559 525.78562 C 337.56483 525.78562 337.85492 525.93987 338.05278 526.24656 C 338.25064 526.54994 338.3477 526.9866 338.3477 527.5571 C 338.3477 528.1276 338.25064 528.56683 338.05278 528.87351 C 337.85492 529.18019 337.56483 529.33249 337.18559 529.33249 C 336.80636 529.33249 336.51822 529.18019 336.32036 528.87351 C 336.1225 528.56683 336.02349 528.1276 336.02349 527.5571 C 336.02349 526.9866 336.1225 526.54994 336.32036 526.24656 C 336.51822 525.93987 336.80636 525.78562 337.18559 525.78562 z M 319.3438 525.85593 L 319.83403 525.85593 L 319.83403 528.83445 L 320.51567 528.83445 L 320.51567 529.26804 L 318.45317 529.26804 L 318.45317 528.83445 L 319.2852 528.83445 L 319.2852 526.42429 L 318.53325 526.88523 L 318.29497 526.49851 L 319.3438 525.85593 z M 328.24809 525.85593 L 328.73833 525.85593 L 328.73833 528.83445 L 329.41997 528.83445 L 329.41997 529.26804 L 327.35747 529.26804 L 327.35747 528.83445 L 328.18755 528.83445 L 328.18755 526.42429 L 327.43755 526.88523 L 327.19927 526.49851 L 328.24809 525.85593 z M 316.4102 526.2114 C 316.21234 526.2114 316.06321 526.31932 315.96099 526.53367 C 315.85876 526.74802 315.80669 527.08883 315.80669 527.5571 C 315.80669 528.03197 315.85876 528.37596 315.96099 528.59031 C 316.06321 528.80466 316.21234 528.91257 316.4102 528.91257 C 316.60806 528.91257 316.75915 528.80466 316.86138 528.59031 C 316.9636 528.37596 317.01372 528.03197 317.01372 527.5571 C 317.01372 527.08554 316.9636 526.74472 316.86138 526.53367 C 316.75915 526.31932 316.60806 526.2114 316.4102 526.2114 z M 322.34575 526.2114 C 322.14789 526.2114 321.99876 526.31932 321.89653 526.53367 C 321.7943 526.74802 321.74224 527.08883 321.74224 527.5571 C 321.74224 528.03197 321.7943 528.37596 321.89653 528.59031 C 321.99876 528.80466 322.14789 528.91257 322.34575 528.91257 C 322.54361 528.91257 322.69469 528.80466 322.79692 528.59031 C 322.89915 528.37596 322.94927 528.03197 322.94927 527.5571 C 322.94927 527.08554 322.89915 526.74472 322.79692 526.53367 C 322.69469 526.31932 322.54361 526.2114 322.34575 526.2114 z M 325.3145 526.2114 C 325.11664 526.2114 324.96751 526.31932 324.86528 526.53367 C 324.76305 526.74802 324.71099 527.08883 324.71099 527.5571 C 324.71099 528.03197 324.76305 528.37596 324.86528 528.59031 C 324.96751 528.80466 325.11664 528.91257 325.3145 528.91257 C 325.51236 528.91257 325.66344 528.80466 325.76567 528.59031 C 325.8679 528.37596 325.91802 528.03197 325.91802 527.5571 C 325.91802 527.08554 325.8679 526.74472 325.76567 526.53367 C 325.66344 526.31932 325.51236 526.2114 325.3145 526.2114 z M 331.25005 526.2114 C 331.05219 526.2114 330.90306 526.31932 330.80083 526.53367 C 330.6986 526.74802 330.64653 527.08883 330.64653 527.5571 C 330.64653 528.03197 330.6986 528.37596 330.80083 528.59031 C 330.90306 528.80466 331.05219 528.91257 331.25005 528.91257 C 331.44791 528.91257 331.59899 528.80466 331.70122 528.59031 C 331.80345 528.37596 331.85356 528.03197 331.85356 527.5571 C 331.85356 527.08554 331.80345 526.74472 331.70122 526.53367 C 331.59899 526.31932 331.44791 526.2114 331.25005 526.2114 z M 334.2188 526.2114 C 334.02094 526.2114 333.86985 526.31932 333.76763 526.53367 C 333.6654 526.74802 333.61528 527.08883 333.61528 527.5571 C 333.61528 528.03197 333.6654 528.37596 333.76763 528.59031 C 333.86985 528.80466 334.02094 528.91257 334.2188 528.91257 C 334.41666 528.91257 334.56579 528.80466 334.66802 528.59031 C 334.77024 528.37596 334.82231 528.03197 334.82231 527.5571 C 334.82231 527.08554 334.77024 526.74472 334.66802 526.53367 C 334.56579 526.31932 334.41666 526.2114 334.2188 526.2114 z M 337.18559 526.2114 C 336.98773 526.2114 336.8386 526.31932 336.73638 526.53367 C 336.63415 526.74802 336.58208 527.08883 336.58208 527.5571 C 336.58208 528.03197 336.63415 528.37596 336.73638 528.59031 C 336.8386 528.80466 336.98773 528.91257 337.18559 528.91257 C 337.38346 528.91257 337.53454 528.80466 337.63677 528.59031 C 337.73899 528.37596 337.78911 528.03197 337.78911 527.5571 C 337.78911 527.08554 337.73899 526.74472 337.63677 526.53367 C 337.53454 526.31932 337.38346 526.2114 337.18559 526.2114 z M 316.4102 527.2407 C 316.50254 527.2407 316.57997 527.27179 316.64263 527.33445 C 316.70528 527.3971 316.73638 527.47393 316.73638 527.56296 C 316.73638 527.6553 316.70528 527.73273 316.64263 527.79539 C 316.57997 527.85804 316.50254 527.88914 316.4102 527.88914 C 316.31787 527.88914 316.24044 527.85804 316.17778 527.79539 C 316.11842 527.73273 316.08989 527.6553 316.08989 527.56296 C 316.08989 527.47393 316.11842 527.3971 316.17778 527.33445 C 316.24044 527.27179 316.31787 527.2407 316.4102 527.2407 z M 322.34575 527.2407 C 322.43809 527.2407 322.51552 527.27179 322.57817 527.33445 C 322.64083 527.3971 322.67388 527.47393 322.67388 527.56296 C 322.67388 527.6553 322.64083 527.73273 322.57817 527.79539 C 322.51552 527.85804 322.43809 527.88914 322.34575 527.88914 C 322.25342 527.88914 322.17599 527.85804 322.11333 527.79539 C 322.05397 527.73273 322.02544 527.6553 322.02544 527.56296 C 322.02544 527.47393 322.05397 527.3971 322.11333 527.33445 C 322.17599 527.27179 322.25342 527.2407 322.34575 527.2407 z M 325.3145 527.2407 C 325.40684 527.2407 325.48427 527.27179 325.54692 527.33445 C 325.60958 527.3971 325.64067 527.47393 325.64067 527.56296 C 325.64067 527.6553 325.60958 527.73273 325.54692 527.79539 C 325.48427 527.85804 325.40684 527.88914 325.3145 527.88914 C 325.22217 527.88914 325.14474 527.85804 325.08208 527.79539 C 325.02272 527.73273 324.99224 527.6553 324.99224 527.56296 C 324.99224 527.47393 325.02272 527.3971 325.08208 527.33445 C 325.14474 527.27179 325.22217 527.2407 325.3145 527.2407 z M 331.25005 527.2407 C 331.34238 527.2407 331.41981 527.27179 331.48247 527.33445 C 331.54513 527.3971 331.57622 527.47393 331.57622 527.56296 C 331.57622 527.6553 331.54513 527.73273 331.48247 527.79539 C 331.41981 527.85804 331.34238 527.88914 331.25005 527.88914 C 331.15771 527.88914 331.08028 527.85804 331.01763 527.79539 C 330.95827 527.73273 330.92974 527.6553 330.92974 527.56296 C 330.92974 527.47393 330.95827 527.3971 331.01763 527.33445 C 331.08028 527.27179 331.15771 527.2407 331.25005 527.2407 z M 334.2188 527.2407 C 334.31113 527.2407 334.38856 527.27179 334.45122 527.33445 C 334.51388 527.3971 334.54497 527.47393 334.54497 527.56296 C 334.54497 527.6553 334.51388 527.73273 334.45122 527.79539 C 334.38856 527.85804 334.31113 527.88914 334.2188 527.88914 C 334.12646 527.88914 334.04903 527.85804 333.98638 527.79539 C 333.92702 527.73273 333.89653 527.6553 333.89653 527.56296 C 333.89653 527.47393 333.92702 527.3971 333.98638 527.33445 C 334.04903 527.27179 334.12646 527.2407 334.2188 527.2407 z M 337.18559 527.2407 C 337.27793 527.2407 337.35536 527.27179 337.41802 527.33445 C 337.48067 527.3971 337.51177 527.47393 337.51177 527.56296 C 337.51177 527.6553 337.48067 527.73273 337.41802 527.79539 C 337.35536 527.85804 337.27793 527.88914 337.18559 527.88914 C 337.09326 527.88914 337.01583 527.85804 336.95317 527.79539 C 336.89381 527.73273 336.86528 527.6553 336.86528 527.56296 C 336.86528 527.47393 336.89381 527.3971 336.95317 527.33445 C 337.01583 527.27179 337.09326 527.2407 337.18559 527.2407 z M 316.4102 531.96921 C 316.78944 531.96921 317.07953 532.12347 317.27739 532.43015 C 317.47525 532.73354 317.57231 533.1702 317.57231 533.7407 C 317.57231 534.3112 317.47525 534.75042 317.27739 535.0571 C 317.07953 535.36379 316.78944 535.51609 316.4102 535.51609 C 316.03097 535.51609 315.74283 535.36379 315.54497 535.0571 C 315.34711 534.75042 315.24809 534.3112 315.24809 533.7407 C 315.24809 533.1702 315.34711 532.73354 315.54497 532.43015 C 315.74283 532.12347 316.03097 531.96921 316.4102 531.96921 z M 325.3145 531.96921 C 325.69373 531.96921 325.98187 532.12347 326.17974 532.43015 C 326.3776 532.73354 326.47661 533.1702 326.47661 533.7407 C 326.47661 534.3112 326.3776 534.75042 326.17974 535.0571 C 325.98187 535.36379 325.69373 535.51609 325.3145 535.51609 C 324.93527 535.51609 324.64713 535.36379 324.44927 535.0571 C 324.25141 534.75042 324.15239 534.3112 324.15239 533.7407 C 324.15239 533.1702 324.25141 532.73354 324.44927 532.43015 C 324.64713 532.12347 324.93527 531.96921 325.3145 531.96921 z M 328.28325 531.96921 C 328.66248 531.96921 328.95062 532.12347 329.14849 532.43015 C 329.34635 532.73354 329.44536 533.1702 329.44536 533.7407 C 329.44536 534.3112 329.34635 534.75042 329.14849 535.0571 C 328.95062 535.36379 328.66248 535.51609 328.28325 535.51609 C 327.90402 535.51609 327.61392 535.36379 327.41606 535.0571 C 327.2182 534.75042 327.11919 534.3112 327.11919 533.7407 C 327.11919 533.1702 327.2182 532.73354 327.41606 532.43015 C 327.61392 532.12347 327.90402 531.96921 328.28325 531.96921 z M 334.2188 531.96921 C 334.59803 531.96921 334.88617 532.12347 335.08403 532.43015 C 335.28189 532.73354 335.38091 533.1702 335.38091 533.7407 C 335.38091 534.3112 335.28189 534.75042 335.08403 535.0571 C 334.88617 535.36379 334.59803 535.51609 334.2188 535.51609 C 333.83956 535.51609 333.55142 535.36379 333.35356 535.0571 C 333.1557 534.75042 333.05669 534.3112 333.05669 533.7407 C 333.05669 533.1702 333.1557 532.73354 333.35356 532.43015 C 333.55142 532.12347 333.83956 531.96921 334.2188 531.96921 z M 319.3438 532.03953 L 319.83403 532.03953 L 319.83403 535.01609 L 320.51567 535.01609 L 320.51567 535.45164 L 318.45317 535.45164 L 318.45317 535.01609 L 319.2852 535.01609 L 319.2852 532.60789 L 318.53325 533.06687 L 318.29497 532.6821 L 319.3438 532.03953 z M 322.31255 532.03953 L 322.80083 532.03953 L 322.80083 535.01609 L 323.48442 535.01609 L 323.48442 535.45164 L 321.42192 535.45164 L 321.42192 535.01609 L 322.252 535.01609 L 322.252 532.60789 L 321.50005 533.06687 L 321.26372 532.6821 L 322.31255 532.03953 z M 331.21489 532.03953 L 331.70513 532.03953 L 331.70513 535.01609 L 332.38872 535.01609 L 332.38872 535.45164 L 330.32622 535.45164 L 330.32622 535.01609 L 331.1563 535.01609 L 331.1563 532.60789 L 330.40434 533.06687 L 330.16802 532.6821 L 331.21489 532.03953 z M 337.15239 532.03953 L 337.64067 532.03953 L 337.64067 535.01609 L 338.32427 535.01609 L 338.32427 535.45164 L 336.26177 535.45164 L 336.26177 535.01609 L 337.09184 535.01609 L 337.09184 532.60789 L 336.33989 533.06687 L 336.10356 532.6821 L 337.15239 532.03953 z M 316.4102 532.39499 C 316.21234 532.39499 316.06321 532.50291 315.96099 532.71726 C 315.85876 532.93161 315.80669 533.27243 315.80669 533.7407 C 315.80669 534.21556 315.85876 534.55955 315.96099 534.7739 C 316.06321 534.98825 316.21234 535.09617 316.4102 535.09617 C 316.60806 535.09617 316.75915 534.98825 316.86138 534.7739 C 316.9636 534.55955 317.01372 534.21556 317.01372 533.7407 C 317.01372 533.26913 316.9636 532.92831 316.86138 532.71726 C 316.75915 532.50291 316.60806 532.39499 316.4102 532.39499 z M 325.3145 532.39499 C 325.11664 532.39499 324.96751 532.50291 324.86528 532.71726 C 324.76305 532.93161 324.71099 533.27243 324.71099 533.7407 C 324.71099 534.21556 324.76305 534.55955 324.86528 534.7739 C 324.96751 534.98825 325.11664 535.09617 325.3145 535.09617 C 325.51236 535.09617 325.66344 534.98825 325.76567 534.7739 C 325.8679 534.55955 325.91802 534.21556 325.91802 533.7407 C 325.91802 533.26913 325.8679 532.92831 325.76567 532.71726 C 325.66344 532.50291 325.51236 532.39499 325.3145 532.39499 z M 328.28325 532.39499 C 328.08539 532.39499 327.93431 532.50291 327.83208 532.71726 C 327.72985 532.93161 327.67974 533.27243 327.67974 533.7407 C 327.67974 534.21556 327.72985 534.55955 327.83208 534.7739 C 327.93431 534.98825 328.08539 535.09617 328.28325 535.09617 C 328.48111 535.09617 328.63024 534.98825 328.73247 534.7739 C 328.8347 534.55955 328.88677 534.21556 328.88677 533.7407 C 328.88677 533.26913 328.8347 532.92831 328.73247 532.71726 C 328.63024 532.50291 328.48111 532.39499 328.28325 532.39499 z M 334.2188 532.39499 C 334.02094 532.39499 333.86985 532.50291 333.76763 532.71726 C 333.6654 532.93161 333.61528 533.27243 333.61528 533.7407 C 333.61528 534.21556 333.6654 534.55955 333.76763 534.7739 C 333.86985 534.98825 334.02094 535.09617 334.2188 535.09617 C 334.41666 535.09617 334.56579 534.98825 334.66802 534.7739 C 334.77024 534.55955 334.82231 534.21556 334.82231 533.7407 C 334.82231 533.26913 334.77024 532.92831 334.66802 532.71726 C 334.56579 532.50291 334.41666 532.39499 334.2188 532.39499 z M 316.4102 533.42429 C 316.50254 533.42429 316.57997 533.45539 316.64263 533.51804 C 316.70528 533.5807 316.73638 533.65557 316.73638 533.7446 C 316.73638 533.83694 316.70528 533.91437 316.64263 533.97703 C 316.57997 534.03968 316.50254 534.07273 316.4102 534.07273 C 316.31787 534.07273 316.24044 534.03968 316.17778 533.97703 C 316.11842 533.91437 316.08989 533.83694 316.08989 533.7446 C 316.08989 533.65557 316.11842 533.5807 316.17778 533.51804 C 316.24044 533.45539 316.31787 533.42429 316.4102 533.42429 z M 325.3145 533.42429 C 325.40684 533.42429 325.48427 533.45539 325.54692 533.51804 C 325.60958 533.5807 325.64067 533.65557 325.64067 533.7446 C 325.64067 533.83694 325.60958 533.91437 325.54692 533.97703 C 325.48427 534.03968 325.40684 534.07273 325.3145 534.07273 C 325.22217 534.07273 325.14474 534.03968 325.08208 533.97703 C 325.02272 533.91437 324.99224 533.83694 324.99224 533.7446 C 324.99224 533.65557 325.02272 533.5807 325.08208 533.51804 C 325.14474 533.45539 325.22217 533.42429 325.3145 533.42429 z M 328.28325 533.42429 C 328.37559 533.42429 328.45302 533.45539 328.51567 533.51804 C 328.57833 533.5807 328.60942 533.65557 328.60942 533.7446 C 328.60942 533.83694 328.57833 533.91437 328.51567 533.97703 C 328.45302 534.03968 328.37559 534.07273 328.28325 534.07273 C 328.19092 534.07273 328.11349 534.03968 328.05083 533.97703 C 327.99147 533.91437 327.96099 533.83694 327.96099 533.7446 C 327.96099 533.65557 327.99147 533.5807 328.05083 533.51804 C 328.11349 533.45539 328.19092 533.42429 328.28325 533.42429 z M 334.2188 533.42429 C 334.31113 533.42429 334.38856 533.45539 334.45122 533.51804 C 334.51388 533.5807 334.54497 533.65557 334.54497 533.7446 C 334.54497 533.83694 334.51388 533.91437 334.45122 533.97703 C 334.38856 534.03968 334.31113 534.07273 334.2188 534.07273 C 334.12646 534.07273 334.04903 534.03968 333.98638 533.97703 C 333.92702 533.91437 333.89653 533.83694 333.89653 533.7446 C 333.89653 533.65557 333.92702 533.5807 333.98638 533.51804 C 334.04903 533.45539 334.12646 533.42429 334.2188 533.42429 z M 316.4102 538.15281 C 316.78944 538.15281 317.07953 538.30706 317.27739 538.61374 C 317.47525 538.91713 317.57231 539.35379 317.57231 539.92429 C 317.57231 540.49479 317.47525 540.93206 317.27739 541.23874 C 317.07953 541.54543 316.78944 541.69968 316.4102 541.69968 C 316.03097 541.69968 315.74283 541.54543 315.54497 541.23874 C 315.34711 540.93206 315.24809 540.49479 315.24809 539.92429 C 315.24809 539.35379 315.34711 538.91713 315.54497 538.61374 C 315.74283 538.30706 316.03097 538.15281 316.4102 538.15281 z M 328.28325 538.15281 C 328.66248 538.15281 328.95062 538.30706 329.14849 538.61374 C 329.34635 538.91713 329.44536 539.35379 329.44536 539.92429 C 329.44536 540.49479 329.34635 540.93206 329.14849 541.23874 C 328.95062 541.54543 328.66248 541.69968 328.28325 541.69968 C 327.90402 541.69968 327.61392 541.54543 327.41606 541.23874 C 327.2182 540.93206 327.11919 540.49479 327.11919 539.92429 C 327.11919 539.35379 327.2182 538.91713 327.41606 538.61374 C 327.61392 538.30706 327.90402 538.15281 328.28325 538.15281 z M 337.18559 538.15281 C 337.56483 538.15281 337.85492 538.30706 338.05278 538.61374 C 338.25064 538.91713 338.3477 539.35379 338.3477 539.92429 C 338.3477 540.49479 338.25064 540.93206 338.05278 541.23874 C 337.85492 541.54543 337.56483 541.69968 337.18559 541.69968 C 336.80636 541.69968 336.51822 541.54543 336.32036 541.23874 C 336.1225 540.93206 336.02349 540.49479 336.02349 539.92429 C 336.02349 539.35379 336.1225 538.91713 336.32036 538.61374 C 336.51822 538.30706 336.80636 538.15281 337.18559 538.15281 z M 319.3438 538.22117 L 319.83403 538.22117 L 319.83403 541.19968 L 320.51567 541.19968 L 320.51567 541.63523 L 318.45317 541.63523 L 318.45317 541.19968 L 319.2852 541.19968 L 319.2852 538.79148 L 318.53325 539.25046 L 318.29497 538.8657 L 319.3438 538.22117 z M 322.31255 538.22117 L 322.80083 538.22117 L 322.80083 541.19968 L 323.48442 541.19968 L 323.48442 541.63523 L 321.42192 541.63523 L 321.42192 541.19968 L 322.252 541.19968 L 322.252 538.79148 L 321.50005 539.25046 L 321.26372 538.8657 L 322.31255 538.22117 z M 325.27934 538.22117 L 325.76958 538.22117 L 325.76958 541.19968 L 326.45317 541.19968 L 326.45317 541.63523 L 324.38872 541.63523 L 324.38872 541.19968 L 325.22075 541.19968 L 325.22075 538.79148 L 324.4688 539.25046 L 324.23052 538.8657 L 325.27934 538.22117 z M 331.21489 538.22117 L 331.70513 538.22117 L 331.70513 541.19968 L 332.38872 541.19968 L 332.38872 541.63523 L 330.32622 541.63523 L 330.32622 541.19968 L 331.1563 541.19968 L 331.1563 538.79148 L 330.40434 539.25046 L 330.16802 538.8657 L 331.21489 538.22117 z M 334.18364 538.22117 L 334.67388 538.22117 L 334.67388 541.19968 L 335.35552 541.19968 L 335.35552 541.63523 L 333.29302 541.63523 L 333.29302 541.19968 L 334.12505 541.19968 L 334.12505 538.79148 L 333.37309 539.25046 L 333.13481 538.8657 L 334.18364 538.22117 z M 316.4102 538.57859 C 316.21234 538.57859 316.06321 538.68455 315.96099 538.8989 C 315.85876 539.11325 315.80669 539.45602 315.80669 539.92429 C 315.80669 540.39916 315.85876 540.74315 315.96099 540.95749 C 316.06321 541.17184 316.21234 541.27976 316.4102 541.27976 C 316.60806 541.27976 316.75915 541.17184 316.86138 540.95749 C 316.9636 540.74315 317.01372 540.39916 317.01372 539.92429 C 317.01372 539.45272 316.9636 539.10995 316.86138 538.8989 C 316.75915 538.68455 316.60806 538.57859 316.4102 538.57859 z M 328.28325 538.57859 C 328.08539 538.57859 327.93431 538.68455 327.83208 538.8989 C 327.72985 539.11325 327.67974 539.45602 327.67974 539.92429 C 327.67974 540.39916 327.72985 540.74315 327.83208 540.95749 C 327.93431 541.17184 328.08539 541.27976 328.28325 541.27976 C 328.48111 541.27976 328.63024 541.17184 328.73247 540.95749 C 328.8347 540.74315 328.88677 540.39916 328.88677 539.92429 C 328.88677 539.45272 328.8347 539.10995 328.73247 538.8989 C 328.63024 538.68455 328.48111 538.57859 328.28325 538.57859 z M 337.18559 538.57859 C 336.98773 538.57859 336.8386 538.68455 336.73638 538.8989 C 336.63415 539.11325 336.58208 539.45602 336.58208 539.92429 C 336.58208 540.39916 336.63415 540.74315 336.73638 540.95749 C 336.8386 541.17184 336.98773 541.27976 337.18559 541.27976 C 337.38346 541.27976 337.53454 541.17184 337.63677 540.95749 C 337.73899 540.74315 337.78911 540.39916 337.78911 539.92429 C 337.78911 539.45272 337.73899 539.10995 337.63677 538.8989 C 337.53454 538.68455 337.38346 538.57859 337.18559 538.57859 z M 316.4102 539.60789 C 316.50254 539.60789 316.57997 539.63898 316.64263 539.70164 C 316.70528 539.76429 316.73638 539.83916 316.73638 539.9282 C 316.73638 540.02053 316.70528 540.09796 316.64263 540.16062 C 316.57997 540.22328 316.50254 540.25437 316.4102 540.25437 C 316.31787 540.25437 316.24044 540.22328 316.17778 540.16062 C 316.11842 540.09796 316.08989 540.02053 316.08989 539.9282 C 316.08989 539.83916 316.11842 539.76429 316.17778 539.70164 C 316.24044 539.63898 316.31787 539.60789 316.4102 539.60789 z M 328.28325 539.60789 C 328.37559 539.60789 328.45302 539.63898 328.51567 539.70164 C 328.57833 539.76429 328.60942 539.83916 328.60942 539.9282 C 328.60942 540.02053 328.57833 540.09796 328.51567 540.16062 C 328.45302 540.22328 328.37559 540.25437 328.28325 540.25437 C 328.19092 540.25437 328.11349 540.22328 328.05083 540.16062 C 327.99147 540.09796 327.96099 540.02053 327.96099 539.9282 C 327.96099 539.83916 327.99147 539.76429 328.05083 539.70164 C 328.11349 539.63898 328.19092 539.60789 328.28325 539.60789 z M 337.18559 539.60789 C 337.27793 539.60789 337.35536 539.63898 337.41802 539.70164 C 337.48067 539.76429 337.51177 539.83916 337.51177 539.9282 C 337.51177 540.02053 337.48067 540.09796 337.41802 540.16062 C 337.35536 540.22328 337.27793 540.25437 337.18559 540.25437 C 337.09326 540.25437 337.01583 540.22328 336.95317 540.16062 C 336.89381 540.09796 336.86528 540.02053 336.86528 539.9282 C 336.86528 539.83916 336.89381 539.76429 336.95317 539.70164 C 337.01583 539.63898 337.09326 539.60789 337.18559 539.60789 z M 316.4102 544.3364 C 316.78944 544.3364 317.07953 544.4887 317.27739 544.79539 C 317.47525 545.09877 317.57231 545.53543 317.57231 546.10593 C 317.57231 546.67643 317.47525 547.11565 317.27739 547.42234 C 317.07953 547.72902 316.78944 547.88328 316.4102 547.88328 C 316.03097 547.88328 315.74283 547.72902 315.54497 547.42234 C 315.34711 547.11565 315.24809 546.67643 315.24809 546.10593 C 315.24809 545.53543 315.34711 545.09877 315.54497 544.79539 C 315.74283 544.4887 316.03097 544.3364 316.4102 544.3364 z M 328.28325 544.3364 C 328.66248 544.3364 328.95062 544.4887 329.14849 544.79539 C 329.34635 545.09877 329.44536 545.53543 329.44536 546.10593 C 329.44536 546.67643 329.34635 547.11565 329.14849 547.42234 C 328.95062 547.72902 328.66248 547.88328 328.28325 547.88328 C 327.90402 547.88328 327.61392 547.72902 327.41606 547.42234 C 327.2182 547.11565 327.11919 546.67643 327.11919 546.10593 C 327.11919 545.53543 327.2182 545.09877 327.41606 544.79539 C 327.61392 544.4887 327.90402 544.3364 328.28325 544.3364 z M 331.25005 544.3364 C 331.62928 544.3364 331.91742 544.4887 332.11528 544.79539 C 332.31314 545.09877 332.41216 545.53543 332.41216 546.10593 C 332.41216 546.67643 332.31314 547.11565 332.11528 547.42234 C 331.91742 547.72902 331.62928 547.88328 331.25005 547.88328 C 330.87081 547.88328 330.58267 547.72902 330.38481 547.42234 C 330.18695 547.11565 330.08794 546.67643 330.08794 546.10593 C 330.08794 545.53543 330.18695 545.09877 330.38481 544.79539 C 330.58267 544.4887 330.87081 544.3364 331.25005 544.3364 z M 319.3438 544.40476 L 319.83403 544.40476 L 319.83403 547.38328 L 320.51567 547.38328 L 320.51567 547.81882 L 318.45317 547.81882 L 318.45317 547.38328 L 319.2852 547.38328 L 319.2852 544.97312 L 318.53325 545.43406 L 318.29497 545.04734 L 319.3438 544.40476 z M 322.31255 544.40476 L 322.80083 544.40476 L 322.80083 547.38328 L 323.48442 547.38328 L 323.48442 547.81882 L 321.42192 547.81882 L 321.42192 547.38328 L 322.252 547.38328 L 322.252 544.97312 L 321.50005 545.43406 L 321.26372 545.04734 L 322.31255 544.40476 z M 325.27934 544.40476 L 325.76958 544.40476 L 325.76958 547.38328 L 326.45317 547.38328 L 326.45317 547.81882 L 324.38872 547.81882 L 324.38872 547.38328 L 325.22075 547.38328 L 325.22075 544.97312 L 324.4688 545.43406 L 324.23052 545.04734 L 325.27934 544.40476 z M 334.18364 544.40476 L 334.67388 544.40476 L 334.67388 547.38328 L 335.35552 547.38328 L 335.35552 547.81882 L 333.29302 547.81882 L 333.29302 547.38328 L 334.12505 547.38328 L 334.12505 544.97312 L 333.37309 545.43406 L 333.13481 545.04734 L 334.18364 544.40476 z M 337.15239 544.40476 L 337.64067 544.40476 L 337.64067 547.38328 L 338.32427 547.38328 L 338.32427 547.81882 L 336.26177 547.81882 L 336.26177 547.38328 L 337.09184 547.38328 L 337.09184 544.97312 L 336.33989 545.43406 L 336.10356 545.04734 L 337.15239 544.40476 z M 316.4102 544.76218 C 316.21234 544.76218 316.06321 544.86815 315.96099 545.08249 C 315.85876 545.29684 315.80669 545.63766 315.80669 546.10593 C 315.80669 546.5808 315.85876 546.92674 315.96099 547.14109 C 316.06321 547.35544 316.21234 547.4614 316.4102 547.4614 C 316.60806 547.4614 316.75915 547.35544 316.86138 547.14109 C 316.9636 546.92674 317.01372 546.5808 317.01372 546.10593 C 317.01372 545.63436 316.9636 545.29355 316.86138 545.08249 C 316.75915 544.86815 316.60806 544.76218 316.4102 544.76218 z M 328.28325 544.76218 C 328.08539 544.76218 327.93431 544.86815 327.83208 545.08249 C 327.72985 545.29684 327.67974 545.63766 327.67974 546.10593 C 327.67974 546.5808 327.72985 546.92674 327.83208 547.14109 C 327.93431 547.35544 328.08539 547.4614 328.28325 547.4614 C 328.48111 547.4614 328.63024 547.35544 328.73247 547.14109 C 328.8347 546.92674 328.88677 546.5808 328.88677 546.10593 C 328.88677 545.63436 328.8347 545.29355 328.73247 545.08249 C 328.63024 544.86815 328.48111 544.76218 328.28325 544.76218 z M 331.25005 544.76218 C 331.05219 544.76218 330.90306 544.86815 330.80083 545.08249 C 330.6986 545.29684 330.64653 545.63766 330.64653 546.10593 C 330.64653 546.5808 330.6986 546.92674 330.80083 547.14109 C 330.90306 547.35544 331.05219 547.4614 331.25005 547.4614 C 331.44791 547.4614 331.59899 547.35544 331.70122 547.14109 C 331.80345 546.92674 331.85356 546.5808 331.85356 546.10593 C 331.85356 545.63436 331.80345 545.29355 331.70122 545.08249 C 331.59899 544.86815 331.44791 544.76218 331.25005 544.76218 z M 316.4102 545.78953 C 316.50254 545.78953 316.57997 545.82062 316.64263 545.88328 C 316.70528 545.94593 316.73638 546.02275 316.73638 546.11179 C 316.73638 546.20413 316.70528 546.28156 316.64263 546.34421 C 316.57997 546.40687 316.50254 546.43796 316.4102 546.43796 C 316.31787 546.43796 316.24044 546.40687 316.17778 546.34421 C 316.11842 546.28156 316.08989 546.20413 316.08989 546.11179 C 316.08989 546.02275 316.11842 545.94593 316.17778 545.88328 C 316.24044 545.82062 316.31787 545.78953 316.4102 545.78953 z M 328.28325 545.78953 C 328.37559 545.78953 328.45302 545.82062 328.51567 545.88328 C 328.57833 545.94593 328.60942 546.02275 328.60942 546.11179 C 328.60942 546.20413 328.57833 546.28156 328.51567 546.34421 C 328.45302 546.40687 328.37559 546.43796 328.28325 546.43796 C 328.19092 546.43796 328.11349 546.40687 328.05083 546.34421 C 327.99147 546.28156 327.96099 546.20413 327.96099 546.11179 C 327.96099 546.02275 327.99147 545.94593 328.05083 545.88328 C 328.11349 545.82062 328.19092 545.78953 328.28325 545.78953 z M 331.25005 545.78953 C 331.34238 545.78953 331.41981 545.82062 331.48247 545.88328 C 331.54513 545.94593 331.57622 546.02275 331.57622 546.11179 C 331.57622 546.20413 331.54513 546.28156 331.48247 546.34421 C 331.41981 546.40687 331.34238 546.43796 331.25005 546.43796 C 331.15771 546.43796 331.08028 546.40687 331.01763 546.34421 C 330.95827 546.28156 330.92974 546.20413 330.92974 546.11179 C 330.92974 546.02275 330.95827 545.94593 331.01763 545.88328 C 331.08028 545.82062 331.15771 545.78953 331.25005 545.78953 z "
               transform="translate(-300.79822,-510.8391)" />
            <rect
               id="rect4696"
               y="12.5"
               x="3"
               width="7"
               height="2"
               style="fill:#ffffff" />
          </g>
          <rect
             height="7"
             width="2"
             x="37.5"
             y="42"
             id="rect4700"
             style="fill:#ffffff" />
          <rect
             height="7"
             width="2"
             x="32.5"
             y="42"
             id="rect4702"
             style="fill:#ffffff" />
          <rect
             height="7"
             width="2"
             x="27.5"
             y="42"
             id="rect4704"
             style="fill:#ffffff" />
          <rect
             height="7"
             width="2"
             x="22.5"
             y="42"
             id="rect4706"
             style="fill:#ffffff" />
          <rect
             height="7"
             width="2"
             x="17.5"
             y="42"
             id="rect4708"
             style="fill:#ffffff" />
          <rect
             height="7"
             width="2"
             x="12.5"
             y="42"
             id="rect4710"
             style="fill:#ffffff" />
        </g>
      </g>
    </g>
  </g>
</svg>
